<svg xmlns="http://www.w3.org/2000/svg" xmlns:xlink="http://www.w3.org/1999/xlink" width="120" height="32.444" viewBox="0 0 120 32.444">
  <defs>
    <clipPath id="clip-path">
      <rect id="Rectangle_847" data-name="Rectangle 847" width="120" height="32.444" fill="none"/>
    </clipPath>
  </defs>
  <g id="Group_2214" data-name="Group 2214" transform="translate(0 0)">
    <g id="Group_2212" data-name="Group 2212" transform="translate(0 0)" clip-path="url(#clip-path)">
      <path id="Path_8681" data-name="Path 8681" d="M179.683,4.188a2.3,2.3,0,1,1-2.4-2.334,2.435,2.435,0,0,1,2.4,2.334" transform="translate(-95.699 -1.013)" fill="#ff0037"/>
      <path id="Path_8682" data-name="Path 8682" d="M16.143.424H.592A.159.159,0,0,0,.424.592V23.717a.158.158,0,0,0,.168.167H4.178a.158.158,0,0,0,.168-.167V14.6H15.439a.158.158,0,0,0,.168-.168V11.35a.158.158,0,0,0-.168-.167H4.345V3.91h11.8a.158.158,0,0,0,.167-.168V.592a.159.159,0,0,0-.167-.168" transform="translate(-0.232 -0.232)" fill="#ff0037"/>
      <path id="Path_8683" data-name="Path 8683" d="M16.143.424H.592A.159.159,0,0,0,.424.592V23.717a.158.158,0,0,0,.168.167H4.178a.158.158,0,0,0,.168-.167V14.6H15.439a.158.158,0,0,0,.168-.168V11.35a.158.158,0,0,0-.168-.167H4.345V3.91h11.8a.158.158,0,0,0,.167-.168V.592A.159.159,0,0,0,16.143.424Z" transform="translate(-0.232 -0.232)" fill="none" stroke="#ff0037" stroke-width="0.849"/>
      <path id="Path_8684" data-name="Path 8684" d="M47.818,14.987a7.459,7.459,0,0,0-4.927,1.91l-.134-1.441c0-.134-.067-.168-.168-.168H39.506a.158.158,0,0,0-.167.168V31.677a.158.158,0,0,0,.167.167h3.419a.158.158,0,0,0,.168-.167v-11.7a7.267,7.267,0,0,1,4.491-1.575,9.954,9.954,0,0,1,2.48.335c.134,0,.2-.067.2-.168V15.49c0-.1-.034-.134-.134-.168a8.391,8.391,0,0,0-2.313-.335" transform="translate(-21.503 -8.192)" fill="#ff0037"/>
      <path id="Path_8685" data-name="Path 8685" d="M47.818,14.987a7.459,7.459,0,0,0-4.927,1.91l-.134-1.441c0-.134-.067-.168-.168-.168H39.506a.158.158,0,0,0-.167.168V31.677a.158.158,0,0,0,.167.167h3.419a.158.158,0,0,0,.168-.167v-11.7a7.267,7.267,0,0,1,4.491-1.575,9.954,9.954,0,0,1,2.48.335c.134,0,.2-.067.2-.168V15.49c0-.1-.034-.134-.134-.168A8.391,8.391,0,0,0,47.818,14.987Z" transform="translate(-21.503 -8.192)" fill="none" stroke="#ff0037" stroke-width="0.849"/>
      <path id="Path_8686" data-name="Path 8686" d="M82.192,23.526c0-5.061-3.519-8.613-8.848-8.613S64.5,18.465,64.5,23.526s3.519,8.613,8.848,8.613,8.848-3.552,8.848-8.613m-3.754,0a5.117,5.117,0,1,1-10.222,0,5.117,5.117,0,1,1,10.222,0" transform="translate(-35.255 -8.151)" fill="#ff0037"/>
      <path id="Path_8687" data-name="Path 8687" d="M82.192,23.526c0-5.061-3.519-8.613-8.848-8.613S64.5,18.465,64.5,23.526s3.519,8.613,8.848,8.613S82.192,28.587,82.192,23.526Zm-3.754,0a5.117,5.117,0,1,1-10.222,0,5.117,5.117,0,1,1,10.222,0Z" transform="translate(-35.255 -8.151)" fill="none" stroke="#ff0037" stroke-width="0.849"/>
      <path id="Path_8688" data-name="Path 8688" d="M116.614,14.987a9.663,9.663,0,0,0-5.8,2.011l-.167-1.542c0-.134-.067-.168-.168-.168H107.4a.158.158,0,0,0-.167.168V31.677a.158.158,0,0,0,.167.167h3.419a.158.158,0,0,0,.168-.167V19.88a8.05,8.05,0,0,1,4.625-1.642c2.714,0,3.586,1.542,3.586,4.424v9.015a.158.158,0,0,0,.168.167h3.418a.158.158,0,0,0,.168-.167V22.461c0-4.726-1.977-7.474-6.334-7.474" transform="translate(-58.613 -8.192)" fill="#ff0037"/>
      <path id="Path_8689" data-name="Path 8689" d="M116.614,14.987a9.663,9.663,0,0,0-5.8,2.011l-.167-1.542c0-.134-.067-.168-.168-.168H107.4a.158.158,0,0,0-.167.168V31.677a.158.158,0,0,0,.167.167h3.419a.158.158,0,0,0,.168-.167V19.88a8.05,8.05,0,0,1,4.625-1.642c2.714,0,3.586,1.542,3.586,4.424v9.015a.158.158,0,0,0,.168.167h3.418a.158.158,0,0,0,.168-.167V22.461C122.948,17.735,120.971,14.987,116.614,14.987Z" transform="translate(-58.613 -8.192)" fill="none" stroke="#ff0037" stroke-width="0.849"/>
      <path id="Path_8690" data-name="Path 8690" d="M153.568,23.521c-1.676,0-2.346-.972-2.346-2.714V13h4.592a.158.158,0,0,0,.168-.167V10.082a.158.158,0,0,0-.168-.167h-4.592V5.289c0-.1-.067-.134-.167-.134l-3.385.336a.187.187,0,0,0-.168.2V9.914h-2.949a.158.158,0,0,0-.167.167V12.83a.158.158,0,0,0,.167.167H147.5v7.809c0,4.155,1.944,5.965,5.362,5.965a9.489,9.489,0,0,0,3.586-.637.209.209,0,0,0,.134-.2V23.085c0-.1-.067-.168-.2-.134a7.029,7.029,0,0,1-2.815.57" transform="translate(-78.922 -2.818)" fill="#ff0037"/>
      <path id="Path_8691" data-name="Path 8691" d="M153.568,23.521c-1.676,0-2.346-.972-2.346-2.714V13h4.592a.158.158,0,0,0,.168-.167V10.082a.158.158,0,0,0-.168-.167h-4.592V5.289c0-.1-.067-.134-.167-.134l-3.385.336a.187.187,0,0,0-.168.2V9.914h-2.949a.158.158,0,0,0-.167.167V12.83a.158.158,0,0,0,.167.167H147.5v7.809c0,4.155,1.944,5.965,5.362,5.965a9.489,9.489,0,0,0,3.586-.637.209.209,0,0,0,.134-.2V23.085c0-.1-.067-.168-.2-.134A7.029,7.029,0,0,1,153.568,23.521Z" transform="translate(-78.922 -2.818)" fill="none" stroke="#ff0037" stroke-width="0.849"/>
      <path id="Path_8692" data-name="Path 8692" d="M179.968,32.04V15.819a.158.158,0,0,0-.167-.167h-3.419a.158.158,0,0,0-.168.167V32.04a.158.158,0,0,0,.168.168H179.8a.158.158,0,0,0,.167-.168" transform="translate(-96.32 -8.555)" fill="#ff0037"/>
      <path id="Rectangle_846" data-name="Rectangle 846" d="M.369,0H3.385a.369.369,0,0,1,.369.369V16.186a.37.37,0,0,1-.37.37H.37a.37.37,0,0,1-.37-.37V.369A.369.369,0,0,1,.369,0Z" transform="translate(79.894 7.097)" fill="none" stroke="#ff0037" stroke-width="0.849"/>
      <path id="Path_8693" data-name="Path 8693" d="M198.085,14.913c-4.994,0-8.379,3.486-8.379,8.613,0,5.262,3.452,8.647,8.781,8.647a14.3,14.3,0,0,0,6.636-1.709.239.239,0,0,0,.1-.2V27.246c0-.1-.067-.2-.2-.134a14.221,14.221,0,0,1-6.435,1.676c-2.949,0-4.927-1.676-5.061-4.256h12.535a.158.158,0,0,0,.167-.168c.469-5.7-2.647-9.451-8.144-9.451m4.524,6.7h-8.915a4.256,4.256,0,0,1,4.491-3.452,4.135,4.135,0,0,1,4.424,3.452" transform="translate(-103.695 -8.151)" fill="#ff0037"/>
      <path id="Path_8694" data-name="Path 8694" d="M198.085,14.913c-4.994,0-8.379,3.486-8.379,8.613,0,5.262,3.452,8.647,8.781,8.647a14.3,14.3,0,0,0,6.636-1.709.239.239,0,0,0,.1-.2V27.246c0-.1-.067-.2-.2-.134a14.221,14.221,0,0,1-6.435,1.676c-2.949,0-4.927-1.676-5.061-4.256h12.535a.158.158,0,0,0,.167-.168C206.7,18.667,203.581,14.913,198.085,14.913Zm4.524,6.7h-8.915a4.256,4.256,0,0,1,4.491-3.452A4.135,4.135,0,0,1,202.609,21.616Z" transform="translate(-103.695 -8.151)" fill="none" stroke="#ff0037" stroke-width="0.849"/>
      <path id="Path_8695" data-name="Path 8695" d="M240.3,14.987a7.459,7.459,0,0,0-4.927,1.91l-.134-1.441c0-.134-.067-.168-.167-.168h-3.084a.158.158,0,0,0-.167.168V31.677a.158.158,0,0,0,.167.167h3.419a.158.158,0,0,0,.168-.167v-11.7a7.267,7.267,0,0,1,4.491-1.575,9.954,9.954,0,0,1,2.48.335c.134,0,.2-.067.2-.168V15.49c0-.1-.034-.134-.134-.168a8.393,8.393,0,0,0-2.313-.335" transform="translate(-126.717 -8.192)" fill="#ff0037"/>
      <path id="Path_8696" data-name="Path 8696" d="M240.3,14.987a7.459,7.459,0,0,0-4.927,1.91l-.134-1.441c0-.134-.067-.168-.167-.168h-3.084a.158.158,0,0,0-.167.168V31.677a.158.158,0,0,0,.167.167h3.419a.158.158,0,0,0,.168-.167v-11.7a7.267,7.267,0,0,1,4.491-1.575,9.954,9.954,0,0,1,2.48.335c.134,0,.2-.067.2-.168V15.49c0-.1-.034-.134-.134-.168A8.393,8.393,0,0,0,240.3,14.987Z" transform="translate(-126.717 -8.192)" fill="none" stroke="#ff0037" stroke-width="0.849"/>
      <path id="Path_8697" data-name="Path 8697" d="M23.754,65.021l-2.14-5.005a.06.06,0,0,0-.044-.029H20.7a.06.06,0,0,0-.044.029l-2.147,5.005c-.007.022,0,.044.022.044h.841a.06.06,0,0,0,.044-.029l.421-1.03h2.583l.428,1.03a.06.06,0,0,0,.044.029h.841c.022,0,.029-.022.022-.044m-1.632-1.763h-1.98l.994-2.437Zm4.244,1.908a2.029,2.029,0,0,0,2.176-2.2V60.023a.034.034,0,0,0-.036-.036h-.769a.034.034,0,0,0-.036.036v2.945a1.335,1.335,0,1,1-2.662,0V60.023A.034.034,0,0,0,25,59.987h-.769a.034.034,0,0,0-.036.036v2.945a2.027,2.027,0,0,0,2.169,2.2m2.851-5.143V60.7a.034.034,0,0,0,.036.036h1.632v4.287a.034.034,0,0,0,.036.036h.769a.034.034,0,0,0,.036-.036V60.741h1.639A.034.034,0,0,0,33.4,60.7v-.682a.034.034,0,0,0-.036-.036H29.252a.034.034,0,0,0-.036.036m8.408,2.067H34.99V60.023a.034.034,0,0,0-.036-.036h-.776a.034.034,0,0,0-.036.036v5.005a.034.034,0,0,0,.036.036h.776a.034.034,0,0,0,.036-.036V62.867h2.633v2.162a.034.034,0,0,0,.036.036h.769a.034.034,0,0,0,.036-.036V60.023a.034.034,0,0,0-.036-.036H37.66a.034.034,0,0,0-.036.036Zm4.44,3.083a2.648,2.648,0,1,0-2.655-2.648,2.511,2.511,0,0,0,2.655,2.648m0-.769a1.88,1.88,0,1,1,1.806-1.879A1.753,1.753,0,0,1,42.063,64.4m7.74.617-1.523-1.77a1.552,1.552,0,0,0,1.32-1.6,1.616,1.616,0,0,0-1.763-1.661H45.7a.034.034,0,0,0-.036.036v5.005a.034.034,0,0,0,.036.036h.776a.034.034,0,0,0,.036-.036V63.295h.82l1.458,1.748a.052.052,0,0,0,.044.022h.95c.029,0,.044-.015.022-.044m-1.037-3.366a.888.888,0,0,1-1,.921H46.5V60.734h1.262a.892.892,0,0,1,1,.921M51.5,65.029V60.023a.034.034,0,0,0-.036-.036h-.776a.034.034,0,0,0-.036.036v5.005a.034.034,0,0,0,.036.036h.776a.034.034,0,0,0,.036-.036m4.614-4.367v-.638a.034.034,0,0,0-.036-.036H52.487a.034.034,0,0,0-.036.036V60.7a.034.034,0,0,0,.036.036h2.6l-2.778,3.6a.1.1,0,0,0-.015.044v.653a.034.034,0,0,0,.036.036H56.1a.034.034,0,0,0,.036-.036v-.675a.034.034,0,0,0-.036-.036H53.314L56.1,60.7a.1.1,0,0,0,.015-.044m1.727,2.191h2.575a.034.034,0,0,0,.036-.036V62.17a.034.034,0,0,0-.036-.036H57.841V60.719h2.72a.034.034,0,0,0,.036-.036v-.66a.034.034,0,0,0-.036-.036H57.05a.034.034,0,0,0-.036.036v5.005a.034.034,0,0,0,.036.036h3.584a.034.034,0,0,0,.036-.036v-.667a.034.034,0,0,0-.036-.036H57.841Zm3.823-2.829v5.005a.034.034,0,0,0,.036.036h1.893a2.54,2.54,0,1,0,0-5.078H61.7a.034.034,0,0,0-.036.036m.849,4.287V60.741h1.081a1.785,1.785,0,0,1,0,3.569Zm7.972.856c1.226,0,2.031-.6,2.031-1.538,0-.805-.595-1.175-1.654-1.473-.892-.254-1.2-.45-1.2-.82,0-.435.443-.725,1.081-.725a3.323,3.323,0,0,1,1.284.29c.029.015.044,0,.044-.022v-.7a.052.052,0,0,0-.029-.044,3.544,3.544,0,0,0-1.306-.254c-1.132,0-1.9.595-1.9,1.473,0,.812.53,1.19,1.683,1.509.849.232,1.182.406,1.182.783,0,.464-.472.762-1.211.762a5.983,5.983,0,0,1-1.683-.312c-.029-.007-.044.007-.044.029v.725c0,.022.007.029.029.036a6.014,6.014,0,0,0,1.7.283m7.494-.145-2.14-5.005a.06.06,0,0,0-.044-.029h-.871a.06.06,0,0,0-.044.029l-2.147,5.005c-.007.022,0,.044.022.044H73.6a.06.06,0,0,0,.044-.029l.421-1.03h2.583l.428,1.03a.06.06,0,0,0,.044.029h.841c.022,0,.029-.022.022-.044m-1.632-1.763h-1.98l.994-2.437Zm5.869,1.77v-.7a.034.034,0,0,0-.036-.036H79.524V60.023a.034.034,0,0,0-.036-.036h-.776a.034.034,0,0,0-.036.036v5.005a.034.034,0,0,0,.036.036h3.468a.034.034,0,0,0,.036-.036m1.574-2.176h2.575a.034.034,0,0,0,.036-.036V62.17a.034.034,0,0,0-.036-.036H83.789V60.719h2.72a.034.034,0,0,0,.036-.036v-.66a.034.034,0,0,0-.036-.036H83a.034.034,0,0,0-.036.036v5.005a.034.034,0,0,0,.036.036h3.584a.034.034,0,0,0,.036-.036v-.667a.034.034,0,0,0-.036-.036H83.789Zm5.354,2.314c1.226,0,2.031-.6,2.031-1.538,0-.805-.595-1.175-1.654-1.473-.892-.254-1.2-.45-1.2-.82,0-.435.443-.725,1.081-.725a3.323,3.323,0,0,1,1.284.29c.029.015.044,0,.044-.022v-.7a.052.052,0,0,0-.029-.044,3.544,3.544,0,0,0-1.306-.254c-1.132,0-1.9.595-1.9,1.473,0,.812.53,1.19,1.683,1.509.849.232,1.182.406,1.182.783,0,.464-.472.762-1.211.762a5.983,5.983,0,0,1-1.683-.312c-.029-.007-.044.007-.044.029v.725c0,.022.007.029.029.036a6.014,6.014,0,0,0,1.7.283m9.148-.145-2.14-5.005a.06.06,0,0,0-.044-.029h-.871a.06.06,0,0,0-.044.029l-2.147,5.005c-.007.022,0,.044.022.044h.841a.06.06,0,0,0,.044-.029l.421-1.03h2.583l.428,1.03a.06.06,0,0,0,.044.029h.841c.022,0,.029-.022.022-.044m-1.632-1.763h-1.98l.994-2.437Zm4.309-.341h1.393v1.124a1.982,1.982,0,0,1-1.219.377,1.751,1.751,0,0,1-1.814-1.893,1.834,1.834,0,0,1,2.009-1.893,3.214,3.214,0,0,1,1.407.312c.029.015.044-.007.044-.029V60.2a.045.045,0,0,0-.029-.044,3.491,3.491,0,0,0-1.415-.276,2.627,2.627,0,0,0-2.858,2.648,2.49,2.49,0,0,0,2.641,2.641,2.791,2.791,0,0,0,1.951-.718.052.052,0,0,0,.022-.044V62.243a.034.034,0,0,0-.036-.036h-2.1a.034.034,0,0,0-.036.036v.638a.034.034,0,0,0,.036.036m3.983-.065h2.575a.034.034,0,0,0,.036-.036V62.17a.034.034,0,0,0-.036-.036H104.95V60.719h2.72a.034.034,0,0,0,.036-.036v-.66a.034.034,0,0,0-.036-.036h-3.511a.034.034,0,0,0-.036.036v5.005a.034.034,0,0,0,.036.036h3.584a.034.034,0,0,0,.036-.036v-.667a.034.034,0,0,0-.036-.036H104.95Zm7.305-.457.015,1.291-2.706-3.678a.052.052,0,0,0-.044-.022h-.711a.034.034,0,0,0-.036.036v5.005a.034.034,0,0,0,.036.036h.769a.034.034,0,0,0,.036-.036V62.736l-.007-1.364,2.706,3.671a.052.052,0,0,0,.044.022h.7a.034.034,0,0,0,.036-.036V60.023a.034.034,0,0,0-.036-.036h-.769a.034.034,0,0,0-.036.036Zm1.589-2.372V60.7a.034.034,0,0,0,.036.036h1.632v4.287a.034.034,0,0,0,.036.036h.769a.034.034,0,0,0,.036-.036V60.741h1.639a.034.034,0,0,0,.036-.036v-.682a.034.034,0,0,0-.036-.036H113.88a.034.034,0,0,0-.036.036" transform="translate(-10.116 -32.73)" fill="#141928"/>
      <text id="_" data-name="™" transform="translate(116.739 7.622)" fill="#ff0037" font-size="3" font-family="FrGuide-Book, Fr Guide"><tspan x="0" y="0">™</tspan></text>
    </g>
  </g>
</svg>
